<?xml version="1.0" encoding="UTF-8"?>
<svg version="1.1" xmlns="http://www.w3.org/2000/svg" width="509" height="383">
<path d="M0 0 C33.99 0 67.98 0 103 0 C107.4996969 11.24924225 107.4996969 11.24924225 108.97607422 15.62524414 C109.31146713 16.61473557 109.64686005 17.60422699 109.99241638 18.623703 C110.34296585 19.66698257 110.69351532 20.71026215 111.0546875 21.78515625 C111.43315323 22.90396683 111.81161896 24.0227774 112.20155334 25.17549133 C113.01014475 27.56676614 113.81751188 29.95845523 114.62374878 32.3505249 C115.88785588 36.10063839 117.15544501 39.84955794 118.42407227 43.59814453 C120.13510338 48.65412594 121.84509586 53.71045643 123.55419922 58.76708984 C126.71115983 68.10526519 129.87456398 77.44122243 133.05206299 86.77243042 C133.63561327 88.48766279 134.21811739 90.20325149 134.79949951 91.91921997 C138.30183745 106.76783005 138.30183745 106.76783005 146 118 C146.6875 121 146.6875 121 147 124 C146.67 124.33 146.34 124.66 146 125 C148.50274163 132.39948627 151.00671464 139.79855466 153.51215553 147.19712734 C154.67616155 150.63455977 155.83978158 154.07212175 157.00244141 157.51000977 C163.39196135 176.43213883 163.39196135 176.43213883 169.98898315 195.28259277 C171.70165916 200.10270535 173.32681825 204.94836943 174.921875 209.80859375 C175.15703827 210.52428024 175.39220154 211.23996674 175.63449097 211.9773407 C176.5863855 214.87830651 177.53655295 217.77978858 178.47900391 220.68383789 C179.18375884 222.85222373 179.89593806 225.01805164 180.609375 227.18359375 C180.82084167 227.84177597 181.03230835 228.49995819 181.25018311 229.17808533 C182.1966084 232.03400556 182.84093064 233.84093064 185 236 C185 238 185 240 185 242 C185.66 242 186.32 242 187 242 C187.33 239.03 187.66 236.06 188 233 C188.66 233 189.32 233 190 233 C190.11214844 232.16855469 190.22429687 231.33710938 190.33984375 230.48046875 C191.07256569 226.61741996 192.25718233 223.00907188 193.5625 219.3125 C195.39704459 214.28648982 195.39704459 214.28648982 196 209 C196.66 209 197.32 209 198 209 C198.18175781 208.31035156 198.36351562 207.62070313 198.55078125 206.91015625 C199.98906537 201.53318637 201.52359069 196.23053215 203.3515625 190.97265625 C204.02529067 189.01110503 204.02529067 189.01110503 204.484375 187.00390625 C205.21585847 184.16109549 206.36148551 181.51565449 207.4765625 178.8046875 C208.24387143 176.92218775 208.24387143 176.92218775 207 175 C207.99 175 208.98 175 210 175 C210.24621094 173.75863281 210.49242187 172.51726562 210.74609375 171.23828125 C212.04675132 165.38589518 214.03926605 159.82287612 216.0625 154.1875 C216.78407708 152.16069853 217.50419038 150.13337518 218.22265625 148.10546875 C218.53984619 147.22012451 218.85703613 146.33478027 219.18383789 145.42260742 C220.01062203 143.08091267 220.01062203 143.08091267 220.50219727 140.953125 C221.06460597 138.746519 221.8667476 136.74671225 222.7421875 134.64453125 C225.41184861 128.06649588 227.76443194 121.38119547 230.125 114.6875 C230.60697729 113.32534474 231.08899296 111.96320306 231.57104492 110.60107422 C235.28783589 100.08320421 238.9398774 89.54344479 242.55859375 78.99145508 C244.33164764 73.82304616 246.1111292 68.6585318 247.95703125 63.515625 C248.38665161 62.31752197 248.38665161 62.31752197 248.82495117 61.09521484 C249.33776129 59.6721159 249.85449904 58.2504225 250.3762207 56.83056641 C251.37642267 54.05652558 252 51.97916446 252 49 C252.66 49 253.32 49 254 49 C254.22945312 47.79988281 254.45890625 46.59976563 254.6953125 45.36328125 C256.16193381 38.77121799 258.55402252 32.51774615 260.875 26.1875 C261.74864953 23.78561189 262.62105701 21.38327162 263.4921875 18.98046875 C264.07009033 17.40108521 264.07009033 17.40108521 264.65966797 15.78979492 C266.51225357 10.55160069 268.24299254 5.27102239 270 0 C303.33 0 336.66 0 371 0 C370.27823386 5.05236301 369.65730219 8.4498907 367.92138672 13.03491211 C367.48884583 14.18802383 367.05630493 15.34113556 366.61065674 16.52919006 C366.13379543 17.77862365 365.65680184 19.02800676 365.1796875 20.27734375 C364.68318326 21.59326163 364.18732763 22.90942439 363.69207764 24.22581482 C362.3681856 27.7396244 361.0357275 31.25012678 359.70160675 34.76006317 C358.31852573 38.40335733 356.94347064 42.04967675 355.56787109 45.69580078 C353.64977587 50.77796199 351.72939541 55.85924651 349.80563545 60.9392662 C346.02077997 70.934098 342.27034842 80.94160012 338.5302124 90.95324707 C333.55154134 104.27289579 328.50158838 117.56310798 323.37890625 130.828125 C316.28667708 149.20250851 309.37935449 167.64378841 302.54614258 186.11560059 C297.84911571 198.80455236 293.00791176 211.42992453 288 224 C288.66 224.33 289.32 224.66 290 225 C288.515 225.99 288.515 225.99 287 227 C285.81346569 229.6790161 284.782228 232.29982777 283.8046875 235.0546875 C283.49982422 235.88720535 283.19496094 236.71972321 282.88085938 237.57746887 C282.21843263 239.38884924 281.5603916 241.20183802 280.90618896 243.01620483 C279.14555864 247.89725151 277.35232725 252.76631919 275.5625 257.63671875 C275.19148163 258.6487587 274.82046326 259.66079865 274.4382019 260.70350647 C270.37912031 271.74795263 266.1379258 282.72044935 261.875 293.6875 C257.45406691 305.062931 253.04993177 316.44110948 248.79071045 327.87820435 C246.32140361 334.50435242 243.83790437 341.12522181 241.35839844 347.74755859 C240.69883293 349.50978403 240.03965782 351.27215563 239.38085938 353.03466797 C232.52473625 371.37513541 232.52473625 371.37513541 229 380 C217.97721031 380.81328681 207.02741096 381.14996424 195.9765625 381.1328125 C194.41238388 381.13348844 192.84820536 381.13446086 191.2840271 381.13571167 C188.04546077 381.13716892 184.80692241 381.13509453 181.56835938 381.13037109 C177.41455743 381.1246075 173.26081917 381.12800647 169.10701942 381.13394356 C165.8952282 381.13754606 162.68345228 381.13641318 159.47166061 381.13381577 C157.93821581 381.13314908 156.40476962 381.13396592 154.87132645 381.13629532 C152.74442042 381.1388239 150.61762071 381.13498145 148.49072266 381.12939453 C147.28211578 381.12859894 146.07350891 381.12780334 144.82827759 381.12698364 C142 381 142 381 140 380 C139.375 377.4375 139.375 377.4375 139 375 C138.01 375 137.02 375 136 375 C135.855625 374.113125 135.71125 373.22625 135.5625 372.3125 C134.76036088 367.58879183 133.85619444 363.23231739 132.125 358.75 C131.63386719 357.44289063 131.63386719 357.44289063 131.1328125 356.109375 C130.12921424 353.66186646 130.12921424 353.66186646 127 353 C127 352.01 127 351.02 127 350 C127.66 350 128.32 350 129 350 C128.67 348.35 128.34 346.7 128 345 C127.01 345 126.02 345 125 345 C125.04125 344.0925 125.0825 343.185 125.125 342.25 C125.00398426 339.10359074 124.71895868 337.57843802 123 335 C122.34 334.67 121.68 334.34 121 334 C121 332.68 121 331.36 121 330 C120.01 329.67 119.02 329.34 118 329 C116.875 321.375 116.875 321.375 118 318 C117.34 317.67 116.68 317.34 116 317 C115.30664062 315.15209961 115.30664062 315.15209961 114.65625 312.71484375 C112.90739485 306.54441701 110.74012344 300.56943167 108.5 294.5625 C108.10941406 293.48806641 107.71882813 292.41363281 107.31640625 291.30664062 C106.93355469 290.27861328 106.55070312 289.25058594 106.15625 288.19140625 C105.81400391 287.26529541 105.47175781 286.33918457 105.11914062 285.38500977 C104.15211518 282.97007732 104.15211518 282.97007732 102.40429688 281.41381836 C99.9352597 278.9280405 100.2955276 275.3388331 100 272 C99.67826628 269.99810127 99.34951621 267.99723547 99 266 C98.38125 265.938125 97.7625 265.87625 97.125 265.8125 C95 265 95 265 93.6875 262.625 C93 260 93 260 94 257 C92.68493254 250.67962474 89.62971724 244.5961627 87.0859375 238.69921875 C86.17949961 236.4461663 85.52042275 234.36191865 85 232 C84.19595537 228.8371515 84.19595537 228.8371515 83 226 C82.01 225.67 81.02 225.34 80 225 C80 224.01 80 223.02 80 222 C79.34 221.67 78.68 221.34 78 221 C78.25136719 220.24074219 78.50273437 219.48148438 78.76171875 218.69921875 C79.11955029 213.14403079 76.94314727 208.87565104 74.8125 203.8125 C74.00519287 201.84038259 73.19919872 199.86772717 72.39453125 197.89453125 C71.9970166 196.92467285 71.59950195 195.95481445 71.18994141 194.95556641 C66 182.06483381 66 182.06483381 66 178 C65.01 178 64.02 178 63 178 C63 177.01 63 176.02 63 175 C62.67 174.01 62.34 173.02 62 172 C61.57441515 170.53417474 61.15008764 169.06798421 60.7265625 167.6015625 C58.87757015 161.4240947 56.63994331 155.41002607 54.375 149.375 C53.7255542 147.63319458 53.7255542 147.63319458 53.06298828 145.85620117 C51.7121276 142.23615952 50.35653658 138.61791813 49 135 C48.1145299 132.63413458 47.22911197 130.26824964 46.34375 127.90234375 C44.23333498 122.26666005 42.11853451 116.6326362 40 111 C39.34 111 38.68 111 38 111 C37.91290771 110.36763428 37.82581543 109.73526855 37.73608398 109.08374023 C36.4644603 101.0146307 33.95299988 93.68290878 31.0625 86.0625 C30.61970703 84.85787109 30.17691406 83.65324219 29.72070312 82.41210938 C27.85659174 77.43095929 26.20761302 73.24515268 23 69 C22.5 65.5 22.5 65.5 22 62 C20.92443414 58.21985591 19.82218204 54.48817705 18 51 C16.6712535 50.32423749 15.33812529 49.65699538 14 49 C13.1015625 46.90625 13.1015625 46.90625 12.625 44.5 C12.45226562 43.7059375 12.27953125 42.911875 12.1015625 42.09375 C12.06804687 41.4028125 12.03453125 40.711875 12 40 C12.66 39.34 13.32 38.68 14 38 C13.34 37.67 12.68 37.34 12 37 C11.31323242 35.171875 11.31323242 35.171875 10.66796875 32.75 C8.53548655 25.21317177 5.7546181 17.92166689 3.05273438 10.57421875 C2.46395508 8.95966797 2.46395508 8.95966797 1.86328125 7.3125 C1.50532471 6.33925781 1.14736816 5.36601563 0.77856445 4.36328125 C0 2 0 2 0 0 Z M14 41 C15 43 15 43 15 43 Z M15 43 C16 45 16 45 16 45 Z M80 218 C81 221 81 221 81 221 Z M119 323 C120 326 120 326 120 326 Z M126 342 C127 344 127 344 127 344 Z M136 369 C137 372 137 372 137 372 Z " fill="#FDFDFD" transform="translate(138,0)"/>
<path d="M0 0 C35.31 0 70.62 0 107 0 C107 0.66 107 1.32 107 2 C106.34 2 105.68 2 105 2 C105 101.33 105 200.66 105 303 C141.63 303 178.26 303 216 303 C221.62358277 316.49659864 221.62358277 316.49659864 223.5078125 321.6796875 C223.9320752 322.84185791 224.35633789 324.00402832 224.79345703 325.20141602 C225.23286621 326.41369873 225.67227539 327.62598145 226.125 328.875 C226.83777835 330.83391067 227.55131606 332.79254377 228.26486206 334.75117493 C228.75652323 336.10105415 229.24783371 337.45106115 229.73880005 338.80119324 C231.51778725 343.69000387 233.31731033 348.57095719 235.125 353.44921875 C235.88090576 355.49350656 236.63651409 357.53790406 237.39202881 359.58233643 C237.87734827 360.89345468 238.36386353 362.20413098 238.85162354 363.51434326 C239.53207176 365.34294146 240.20754589 367.17338825 240.8828125 369.00390625 C241.26840332 370.04361572 241.65399414 371.0833252 242.05126953 372.15454102 C242.92227461 374.76688384 243.53114555 377.28992166 244 380 C238.375 382.125 238.375 382.125 235 381 C231.93621262 380.90557186 228.89543173 380.8697625 225.83161926 380.87974548 C224.88167184 380.87889106 223.93172442 380.87803663 222.95299071 380.87715632 C219.75615783 380.87550355 216.55937691 380.88101962 213.36254883 380.88647461 C211.07642111 380.88675655 208.79029331 380.88659861 206.50416565 380.8860321 C200.28552547 380.8857444 194.06690446 380.89163678 187.84826875 380.89860606 C181.35398089 380.90484408 174.85969262 380.90544376 168.36540222 380.90663147 C157.46112729 380.90938956 146.55685946 380.91564195 135.65258789 380.92456055 C124.4204919 380.93373773 113.18839781 380.94081707 101.95629883 380.94506836 C101.26410402 380.94533108 100.57190922 380.94559381 99.85873882 380.94586449 C96.3862462 380.94716952 92.91375357 380.94843323 89.44126093 380.94967639 C60.62750262 380.96004531 31.81375148 380.97773468 3 381 C3 381.66 3 382.32 3 383 C2.34 383 1.68 383 1 383 C0.02493256 380.07479768 -0.13577363 378.17098996 -0.15821838 375.1232605 C-0.16800783 374.10904872 -0.17779728 373.09483694 -0.18788338 372.04989147 C-0.19363821 370.92982865 -0.19939304 369.80976583 -0.20532227 368.65576172 C-0.2152162 367.46514539 -0.22511013 366.27452906 -0.23530388 365.04783344 C-0.26172462 361.71797083 -0.28358703 358.38813652 -0.30329776 355.05823112 C-0.3210669 352.17289544 -0.34222757 349.28758825 -0.36332208 346.40227526 C-0.42755804 337.59162067 -0.48143825 328.78091926 -0.53263092 319.97018051 C-0.55726298 315.73527295 -0.58326021 311.50037513 -0.60972524 307.26547867 C-0.99667417 245.26889021 -1.10798061 183.27215884 -1.12211341 121.27445912 C-1.12375937 114.21086423 -1.12672442 107.1472716 -1.13081557 100.08367771 C-1.13795129 87.71884769 -1.13932451 75.3540336 -1.13438225 62.9892025 C-1.13286924 58.83999996 -1.13352371 54.69080694 -1.13614082 50.541605 C-1.13903052 45.72267669 -1.13705743 40.90377423 -1.13136566 36.08484864 C-1.13008061 34.34287884 -1.13043694 32.60090682 -1.13267338 30.85893798 C-1.13545232 28.46877045 -1.13192056 26.07868479 -1.12698364 23.68852234 C-1.12921419 23.02543794 -1.13144473 22.36235354 -1.13374287 21.67917567 C-1.10506634 14.40206851 -0.48747118 7.3120677 0 0 Z " fill="#FDFDFD" transform="translate(1,0)"/>
<path d="M0 0 C2.46301423 2.46301423 2.76766521 4.27360036 3.625 7.625 C3.88539063 8.62789063 4.14578125 9.63078125 4.4140625 10.6640625 C4.60742188 11.43492187 4.80078125 12.20578125 5 13 C-0.625 15.125 -0.625 15.125 -4 14 C-7.06378738 13.90557186 -10.10456827 13.8697625 -13.16838074 13.87974548 C-14.11832816 13.87889106 -15.06827558 13.87803663 -16.04700929 13.87715632 C-19.24384217 13.87550355 -22.44062309 13.88101962 -25.63745117 13.88647461 C-27.92357889 13.88675655 -30.20970669 13.88659861 -32.49583435 13.8860321 C-38.71447453 13.8857444 -44.93309554 13.89163678 -51.15173125 13.89860606 C-57.64601911 13.90484408 -64.14030738 13.90544376 -70.63459778 13.90663147 C-81.53887271 13.90938956 -92.44314054 13.91564195 -103.34741211 13.92456055 C-114.5795081 13.93373773 -125.81160219 13.94081707 -137.04370117 13.94506836 C-137.73589598 13.94533108 -138.42809078 13.94559381 -139.14126118 13.94586449 C-142.6137538 13.94716952 -146.08624643 13.94843323 -149.55873907 13.94967639 C-178.37249738 13.96004531 -207.18624852 13.97773468 -236 14 C-236 14.66 -236 15.32 -236 16 C-236.66 16 -237.32 16 -238 16 C-238 14.68 -238 13.36 -238 12 C-158.47 12 -78.94 12 3 12 C2.01 9.03 1.02 6.06 0 3 C0 2.01 0 1.02 0 0 Z " fill="#ECECEB" transform="translate(240,367)"/>
<path d="M0 0 C3.47282119 3.47282119 4.53591922 8.38052058 6.1875 12.9375 C6.56841797 13.95263672 6.94933594 14.96777344 7.34179688 16.01367188 C7.69693359 16.98755859 8.05207031 17.96144531 8.41796875 18.96484375 C8.74563232 19.8580835 9.0732959 20.75132324 9.41088867 21.67163086 C10 24 10 24 9 27 C7.68 26.34 6.36 25.68 5 25 C5 24.01 5 23.02 5 22 C5.66 22 6.32 22 7 22 C6.67 20.35 6.34 18.7 6 17 C5.01 17 4.02 17 3 17 C3.04125 16.0925 3.0825 15.185 3.125 14.25 C3.00398426 11.10359074 2.71895868 9.57843802 1 7 C0.34 6.67 -0.32 6.34 -1 6 C-0.67 5.01 -0.34 4.02 0 3 C0 2.01 0 1.02 0 0 Z M4 14 C5 16 5 16 5 16 Z " fill="#E1E1E1" transform="translate(260,328)"/>
<path d="M0 0 C1 2 1 2 0.28735352 4.70556641 C-0.09493408 5.82624512 -0.47722168 6.94692383 -0.87109375 8.1015625 C-1.28037109 9.31328125 -1.68964844 10.525 -2.11132812 11.7734375 C-2.55322497 13.0573469 -2.99528438 14.34120036 -3.4375 15.625 C-3.87633534 16.91643434 -4.31449509 18.20809846 -4.75195312 19.5 C-5.82799273 22.66899576 -6.91094543 25.83545812 -8 29 C-11.11990898 26.21466571 -11.53816182 24.15654359 -12 20 C-10 22 -10 22 -10 25 C-9.34 25 -8.68 25 -8 25 C-7.505 20.545 -7.505 20.545 -7 16 C-6.34 16 -5.68 16 -5 16 C-4.9175 15.21625 -4.835 14.4325 -4.75 13.625 C-3.75634931 8.822355 -1.91286482 4.50190511 0 0 Z " fill="#DEDDDE" transform="translate(333,217)"/>
<path d="M0 0 C2.6072902 2.6072902 3.48026787 5.5359257 4.6875 8.9375 C4.92533203 9.57107422 5.16316406 10.20464844 5.40820312 10.85742188 C7.12148952 15.63553144 7.12148952 15.63553144 6 19 C4.0859375 18.28125 4.0859375 18.28125 2 17 C1.1015625 14.90625 1.1015625 14.90625 0.625 12.5 C0.45226562 11.7059375 0.27953125 10.911875 0.1015625 10.09375 C0.06804687 9.4028125 0.03453125 8.711875 0 8 C0.66 7.34 1.32 6.68 2 6 C1.34 5.67 0.68 5.34 0 5 C0 3.35 0 1.7 0 0 Z M2 9 C3 11 3 11 3 11 Z M3 11 C4 13 4 13 4 13 Z " fill="#E4E4E4" transform="translate(150,32)"/>
<path d="M0 0 C2.46301423 2.46301423 2.76766521 4.27360036 3.625 7.625 C3.88539063 8.62789063 4.14578125 9.63078125 4.4140625 10.6640625 C4.60742188 11.43492187 4.80078125 12.20578125 5 13 C-0.625 15.125 -0.625 15.125 -4 14 C-5.99961564 13.96079185 -8.00049364 13.95556653 -10 14 C-10 13.34 -10 12.68 -10 12 C-5.71 12 -1.42 12 3 12 C2.2575 9.8653125 2.2575 9.8653125 1.5 7.6875 C0.51952735 4.86864114 0 3.01490557 0 0 Z " fill="#E6E5E5" transform="translate(240,367)"/>
<path d="M0 0 C2 2 2 2 3 4.0625 C3.84589942 6.16865601 3.84589942 6.16865601 6 7 C6.625 10.0625 6.625 10.0625 7 13 C6.01 13.33 5.02 13.66 4 14 C3.32739649 12.23141309 2.66211605 10.46003984 2 8.6875 C1.62875 7.70136719 1.2575 6.71523437 0.875 5.69921875 C0 3 0 3 0 0 Z " fill="#E3E3E3" transform="translate(278,111)"/>
<path d="M0 0 C2.36253009 2.36253009 3.037848 4.31227271 4.1875 7.4375 C4.55230469 8.40558594 4.91710937 9.37367187 5.29296875 10.37109375 C6 13 6 13 5 16 C0.82167521 10.87818251 0.25786427 6.52396607 0 0 Z " fill="#DAD9D9" transform="translate(160,59)"/>
<path d="M0 0 C0.99 0 1.98 0 3 0 C4.125 5.75 4.125 5.75 3 8 C2.34 7.67 1.68 7.34 1 7 C1 6.01 1 5.02 1 4 C0.34 3.67 -0.32 3.34 -1 3 C-0.67 2.01 -0.34 1.02 0 0 Z " fill="#EEEEEF" transform="translate(217,218)"/>
<path d="M0 0 C0.99 0.495 0.99 0.495 2 1 C2.59355614 3.64860427 2.74209269 6.29197322 3 9 C0.87491756 5.81237635 0.4979837 3.73487777 0 0 Z " fill="#FAF9F9" transform="translate(274,92)"/>
<path d="M0 0 C0.66 0 1.32 0 2 0 C2.33 1.98 2.66 3.96 3 6 C2.34 5.67 1.68 5.34 1 5 C0.375 2.4375 0.375 2.4375 0 0 Z " fill="#FBFCFC" transform="translate(183,130)"/>
<path d="M0 0 C2 3 2 3 2 6 C1.34 5.67 0.68 5.34 0 5 C0 3.35 0 1.7 0 0 Z " fill="#F9FAFA" transform="translate(146,27)"/>
<path d="M0 0 C0.625 1.875 0.625 1.875 1 4 C0.34 4.66 -0.32 5.32 -1 6 C-0.67 4.02 -0.34 2.04 0 0 Z " fill="#FBFBFA" transform="translate(327,226)"/>
<path d="M0 0 C0.99 0.495 0.99 0.495 2 1 C1.67 1.99 1.34 2.98 1 4 C0.67 2.68 0.34 1.36 0 0 Z " fill="#FCFCFC" transform="translate(227,326)"/>
<path d="M0 0 C0.99 1.485 0.99 1.485 2 3 C1.67 3.66 1.34 4.32 1 5 C0.67 3.35 0.34 1.7 0 0 Z " fill="#FCFDFD" transform="translate(250,307)"/>
<path d="M0 0 C0.99 1.485 0.99 1.485 2 3 C1.67 3.66 1.34 4.32 1 5 C0.67 3.35 0.34 1.7 0 0 Z " fill="#FCFCFC" transform="translate(224,237)"/>
<path d="M0 0 C0.66 0.66 1.32 1.32 2 2 C1.67 2.99 1.34 3.98 1 5 C0.67 3.35 0.34 1.7 0 0 Z " fill="#FCFCFC" transform="translate(207,192)"/>
<path d="M0 0 C0.66 1.32 1.32 2.64 2 4 C1.01 3.01 0.02 2.02 -1 1 C-0.67 0.67 -0.34 0.34 0 0 Z " fill="#FBFCFB" transform="translate(177,111)"/>
<path d="M0 0 C0.66 0.66 1.32 1.32 2 2 C1.67 2.99 1.34 3.98 1 5 C0.67 3.35 0.34 1.7 0 0 Z " fill="#F9F9F8" transform="translate(266,69)"/>
<path d="M0 0 C0.33 0.99 0.66 1.98 1 3 C0.34 3.66 -0.32 4.32 -1 5 C-0.67 3.35 -0.34 1.7 0 0 Z " fill="#F4F4F4" transform="translate(391,43)"/>
<path d="M0 0 C0.99 0.33 1.98 0.66 3 1 C2.01 1.33 1.02 1.66 0 2 C0 1.34 0 0.68 0 0 Z " fill="#FEFEFD" transform="translate(235,348)"/>
<path d="M0 0 C0.33 0.99 0.66 1.98 1 3 C0.34 3 -0.32 3 -1 3 C-0.67 2.01 -0.34 1.02 0 0 Z " fill="#F3F2F2" transform="translate(403,287)"/>
<path d="M0 0 C0.66 1.32 1.32 2.64 2 4 C1.34 3.67 0.68 3.34 0 3 C0 2.01 0 1.02 0 0 Z " fill="#FDFEFD" transform="translate(242,286)"/>
<path d="M0 0 C0.99 0.495 0.99 0.495 2 1 C1.67 1.99 1.34 2.98 1 4 C0.67 2.68 0.34 1.36 0 0 Z " fill="#FDFCFC" transform="translate(299,167)"/>
<path d="M0 0 C0.33 0.99 0.66 1.98 1 3 C0.01 3.495 0.01 3.495 -1 4 C-0.67 2.68 -0.34 1.36 0 0 Z " fill="#FAFCFA" transform="translate(354,149)"/>
<path d="M0 0 C0.66 0.99 1.32 1.98 2 3 C1.01 2.67 0.02 2.34 -1 2 C-0.67 1.34 -0.34 0.68 0 0 Z " fill="#FBFCFB" transform="translate(162,71)"/>
<path d="M0 0 C0.66 1.32 1.32 2.64 2 4 C1.34 3.67 0.68 3.34 0 3 C0 2.01 0 1.02 0 0 Z " fill="#F1F1F0" transform="translate(250,22)"/>
<path d="M0 0 C0.66 1.32 1.32 2.64 2 4 C1.34 4 0.68 4 0 4 C0 2.68 0 1.36 0 0 Z " fill="#EFEFEF" transform="translate(138,6)"/>
<path d="M0 0 C0 3 0 3 0 3 Z " fill="#F9F9F9" transform="translate(272,366)"/>
<path d="M0 0 C0.99 0.495 0.99 0.495 2 1 C1.67 1.66 1.34 2.32 1 3 C0.67 2.01 0.34 1.02 0 0 Z " fill="#FCFCFD" transform="translate(215,214)"/>
<path d="M0 0 C1 4 1 4 1 4 Z " fill="#FEFEFD" transform="translate(107,100)"/>
<path d="" fill="#FDFEFD" transform="translate(0,0)"/>
<path d="M0 0 C3 1 3 1 3 1 Z " fill="#FDFDFD" transform="translate(198,301)"/>
<path d="M0 0 C3 1 3 1 3 1 Z " fill="#FDFDFB" transform="translate(172,301)"/>
<path d="M0 0 C3 1 3 1 3 1 Z " fill="#FDFDFC" transform="translate(166,301)"/>
<path d="M0 0 C3 1 3 1 3 1 Z " fill="#FCFDFC" transform="translate(142,301)"/>
<path d="M0 0 C3 1 3 1 3 1 Z " fill="#FDFDFD" transform="translate(110,301)"/>
<path d="" fill="#F2F3F2" transform="translate(0,0)"/>
<path d="" fill="#F4F4F3" transform="translate(0,0)"/>
<path d="M0 0 C0.99 0.495 0.99 0.495 2 1 C1.01 1.495 1.01 1.495 0 2 C0 1.34 0 0.68 0 0 Z " fill="#FDFEFD" transform="translate(107,241)"/>
<path d="" fill="#FDFEFE" transform="translate(0,0)"/>
<path d="" fill="#FBFBFB" transform="translate(0,0)"/>
<path d="M0 0 C0.99 0.495 0.99 0.495 2 1 C1.01 1.495 1.01 1.495 0 2 C0 1.34 0 0.68 0 0 Z " fill="#F1F0F0" transform="translate(442,184)"/>
<path d="" fill="#FDFDFE" transform="translate(0,0)"/>
<path d="" fill="#F2F2F1" transform="translate(0,0)"/>
<path d="" fill="#FDFEFE" transform="translate(0,0)"/>
<path d="" fill="#FBFCFC" transform="translate(0,0)"/>
<path d="" fill="#FDFEFD" transform="translate(0,0)"/>
<path d="" fill="#FCFCFC" transform="translate(0,0)"/>
<path d="M0 0 C0.99 0.495 0.99 0.495 2 1 C1.01 1.495 1.01 1.495 0 2 C0 1.34 0 0.68 0 0 Z " fill="#FDFCFD" transform="translate(107,137)"/>
<path d="" fill="#F9FAF9" transform="translate(0,0)"/>
<path d="" fill="#FAFAFB" transform="translate(0,0)"/>
<path d="" fill="#F5F3F3" transform="translate(0,0)"/>
<path d="" fill="#FEFDFE" transform="translate(0,0)"/>
<path d="" fill="#FAFBFB" transform="translate(0,0)"/>
<path d="M0 0 C0.33 0.66 0.66 1.32 1 2 C0.34 1.67 -0.32 1.34 -1 1 C-0.67 0.67 -0.34 0.34 0 0 Z " fill="#F8F8F8" transform="translate(377,83)"/>
<path d="" fill="#F1F0EF" transform="translate(0,0)"/>
<path d="M0 0 C0.99 0.495 0.99 0.495 2 1 C1.01 1.495 1.01 1.495 0 2 C0 1.34 0 0.68 0 0 Z " fill="#FDFDFD" transform="translate(107,49)"/>
<path d="" fill="#E2E1E2" transform="translate(0,0)"/>
<path d="" fill="#F9F9F9" transform="translate(0,0)"/>
<path d="" fill="#F2F2F2" transform="translate(0,0)"/>
<path d="" fill="#FAFAFB" transform="translate(0,0)"/>
<path d="" fill="#F5F3F3" transform="translate(0,0)"/>
<path d="" fill="#FBFEFD" transform="translate(0,0)"/>
<path d="M0 0 C2 1 2 1 2 1 Z " fill="#FBFBFB" transform="translate(214,301)"/>
<path d="M0 0 C2 1 2 1 2 1 Z " fill="#FDFEFE" transform="translate(157,301)"/>
<path d="" fill="#FAFBFB" transform="translate(0,0)"/>
<path d="" fill="#F3F2F2" transform="translate(0,0)"/>
<path d="" fill="#FEFDFD" transform="translate(0,0)"/>
<path d="" fill="#F3F3F2" transform="translate(0,0)"/>
<path d="" fill="#FDFDFD" transform="translate(0,0)"/>
<path d="" fill="#FDFEFD" transform="translate(0,0)"/>
<path d="" fill="#FBFCFB" transform="translate(0,0)"/>
<path d="" fill="#F5F6F5" transform="translate(0,0)"/>
<path d="" fill="#F2F2F2" transform="translate(0,0)"/>
<path d="" fill="#FDFCFC" transform="translate(0,0)"/>
<path d="" fill="#FDFEFE" transform="translate(0,0)"/>
<path d="" fill="#F9FAF9" transform="translate(0,0)"/>
<path d="" fill="#F3F4F4" transform="translate(0,0)"/>
<path d="" fill="#FDFDFE" transform="translate(0,0)"/>
<path d="M0 0 C2 1 2 1 2 1 Z " fill="#FEFCFB" transform="translate(328,222)"/>
<path d="M0 0 C2 1 2 1 2 1 Z " fill="#FDFCFC" transform="translate(329,220)"/>
<path d="" fill="#FEFEFF" transform="translate(0,0)"/>
<path d="" fill="#FCFCFC" transform="translate(0,0)"/>
<path d="" fill="#F2F3F2" transform="translate(0,0)"/>
<path d="" fill="#FBFCFC" transform="translate(0,0)"/>
<path d="" fill="#FBFCFB" transform="translate(0,0)"/>
<path d="" fill="#FAFBFB" transform="translate(0,0)"/>
<path d="" fill="#FDFDFD" transform="translate(0,0)"/>
<path d="" fill="#FCFCFC" transform="translate(0,0)"/>
<path d="" fill="#F0F0F0" transform="translate(0,0)"/>
<path d="" fill="#F9FAFB" transform="translate(0,0)"/>
<path d="" fill="#FAFAF9" transform="translate(0,0)"/>
<path d="" fill="#FEFDFD" transform="translate(0,0)"/>
<path d="" fill="#F8F9F7" transform="translate(0,0)"/>
<path d="" fill="#FAFBFA" transform="translate(0,0)"/>
<path d="" fill="#FEFEFE" transform="translate(0,0)"/>
<path d="" fill="#F3F2F2" transform="translate(0,0)"/>
<path d="" fill="#FBFBFB" transform="translate(0,0)"/>
<path d="" fill="#FBFDFB" transform="translate(0,0)"/>
<path d="" fill="#FCFBFB" transform="translate(0,0)"/>
<path d="" fill="#F7F8F7" transform="translate(0,0)"/>
<path d="" fill="#FAF9FA" transform="translate(0,0)"/>
<path d="" fill="#FEFDFC" transform="translate(0,0)"/>
<path d="" fill="#F6F6F6" transform="translate(0,0)"/>
<path d="" fill="#F7F6F6" transform="translate(0,0)"/>
<path d="" fill="#FDFDFC" transform="translate(0,0)"/>
<path d="" fill="#EAEBEA" transform="translate(0,0)"/>
<path d="" fill="#EDECEC" transform="translate(0,0)"/>
<path d="" fill="#EEEEED" transform="translate(0,0)"/>
<path d="" fill="#ECEDEB" transform="translate(0,0)"/>
<path d="" fill="#F7F8F8" transform="translate(0,0)"/>
<path d="" fill="#F9F9F8" transform="translate(0,0)"/>
<path d="" fill="#E3E5E5" transform="translate(0,0)"/>
<path d="" fill="#F3F4F4" transform="translate(0,0)"/>
<path d="" fill="#E2E1E1" transform="translate(0,0)"/>
<path d="" fill="#F0F0F1" transform="translate(0,0)"/>
<path d="" fill="#F4F4F3" transform="translate(0,0)"/>
<path d="" fill="#EDECEE" transform="translate(0,0)"/>
<path d="" fill="#EEEEED" transform="translate(0,0)"/>
<path d="" fill="#D6D6D7" transform="translate(0,0)"/>
<path d="" fill="#F2F5F4" transform="translate(0,0)"/>
<path d="" fill="#F5F7F5" transform="translate(0,0)"/>
<path d="" fill="#F5F6F6" transform="translate(0,0)"/>
<path d="" fill="#EAEAEA" transform="translate(0,0)"/>
<path d="" fill="#EDEBEC" transform="translate(0,0)"/>
<path d="" fill="#FCFBFA" transform="translate(0,0)"/>
<path d="" fill="#FCFCFC" transform="translate(0,0)"/>
<path d="" fill="#FCFCFC" transform="translate(0,0)"/>
<path d="" fill="#EFEFEF" transform="translate(0,0)"/>
<path d="" fill="#F1EFEF" transform="translate(0,0)"/>
<path d="" fill="#FEFCFC" transform="translate(0,0)"/>
<path d="" fill="#FCFAFA" transform="translate(0,0)"/>
<path d="" fill="#F2F1F2" transform="translate(0,0)"/>
<path d="" fill="#FDFEFB" transform="translate(0,0)"/>
<path d="" fill="#FCFBFA" transform="translate(0,0)"/>
<path d="" fill="#EFEFEE" transform="translate(0,0)"/>
<path d="" fill="#FEFEFE" transform="translate(0,0)"/>
<path d="" fill="#F3F3F1" transform="translate(0,0)"/>
<path d="" fill="#EBEAE8" transform="translate(0,0)"/>
<path d="" fill="#F2F0F1" transform="translate(0,0)"/>
<path d="" fill="#EFEEEE" transform="translate(0,0)"/>
<path d="" fill="#FDFDFC" transform="translate(0,0)"/>
<path d="" fill="#F2F3F3" transform="translate(0,0)"/>
<path d="" fill="#FFFEFE" transform="translate(0,0)"/>
<path d="" fill="#FBFBFB" transform="translate(0,0)"/>
<path d="" fill="#FEFFFD" transform="translate(0,0)"/>
<path d="" fill="#F5F5F3" transform="translate(0,0)"/>
<path d="" fill="#F2EFF1" transform="translate(0,0)"/>
<path d="" fill="#F9FAFA" transform="translate(0,0)"/>
<path d="" fill="#EFF0F1" transform="translate(0,0)"/>
<path d="" fill="#FFFCFD" transform="translate(0,0)"/>
<path d="" fill="#FBFBFC" transform="translate(0,0)"/>
<path d="" fill="#FCFBFE" transform="translate(0,0)"/>
<path d="" fill="#FBFDFC" transform="translate(0,0)"/>
<path d="" fill="#FDFFFD" transform="translate(0,0)"/>
<path d="" fill="#FBFCFA" transform="translate(0,0)"/>
<path d="" fill="#FCFCFC" transform="translate(0,0)"/>
<path d="" fill="#FBFAFB" transform="translate(0,0)"/>
<path d="" fill="#FEFEFD" transform="translate(0,0)"/>
<path d="" fill="#FAFCFB" transform="translate(0,0)"/>
<path d="" fill="#FEFDFE" transform="translate(0,0)"/>
<path d="" fill="#FBFBFC" transform="translate(0,0)"/>
<path d="" fill="#FCFCFE" transform="translate(0,0)"/>
<path d="" fill="#FEFEFD" transform="translate(0,0)"/>
<path d="" fill="#FBFEFC" transform="translate(0,0)"/>
<path d="" fill="#FBFCFE" transform="translate(0,0)"/>
<path d="" fill="#FDFEFC" transform="translate(0,0)"/>
<path d="" fill="#FDFBFE" transform="translate(0,0)"/>
<path d="" fill="#FBFAFB" transform="translate(0,0)"/>
<path d="" fill="#EEF0EE" transform="translate(0,0)"/>
<path d="" fill="#FBFAFC" transform="translate(0,0)"/>
<path d="" fill="#FDFFFF" transform="translate(0,0)"/>
<path d="" fill="#FFFEFF" transform="translate(0,0)"/>
<path d="" fill="#F6F4F3" transform="translate(0,0)"/>
<path d="" fill="#F1F0F0" transform="translate(0,0)"/>
<path d="" fill="#F5F4F4" transform="translate(0,0)"/>
<path d="" fill="#F1F2F1" transform="translate(0,0)"/>
<path d="" fill="#FCFEFE" transform="translate(0,0)"/>
<path d="" fill="#FCFCFC" transform="translate(0,0)"/>
<path d="" fill="#FCFEFE" transform="translate(0,0)"/>
<path d="" fill="#FAFAFA" transform="translate(0,0)"/>
<path d="" fill="#FCFCFC" transform="translate(0,0)"/>
<path d="" fill="#FDFCFC" transform="translate(0,0)"/>
<path d="" fill="#FBFDFD" transform="translate(0,0)"/>
<path d="" fill="#F0EFED" transform="translate(0,0)"/>
<path d="" fill="#FDFDFE" transform="translate(0,0)"/>
<path d="" fill="#FDFEFF" transform="translate(0,0)"/>
<path d="" fill="#FEFDFD" transform="translate(0,0)"/>
<path d="" fill="#F5F4F4" transform="translate(0,0)"/>
<path d="" fill="#FBFBFB" transform="translate(0,0)"/>
<path d="" fill="#FCFCFD" transform="translate(0,0)"/>
<path d="" fill="#FEFEFD" transform="translate(0,0)"/>
<path d="" fill="#F1F2F1" transform="translate(0,0)"/>
<path d="" fill="#FCFCFC" transform="translate(0,0)"/>
<path d="" fill="#FCFEFE" transform="translate(0,0)"/>
<path d="" fill="#FEFEFE" transform="translate(0,0)"/>
<path d="" fill="#F3F3F1" transform="translate(0,0)"/>
<path d="" fill="#FDFDFF" transform="translate(0,0)"/>
<path d="" fill="#F1F0EF" transform="translate(0,0)"/>
<path d="" fill="#FDFCFC" transform="translate(0,0)"/>
<path d="" fill="#F0F0F0" transform="translate(0,0)"/>
<path d="" fill="#FDFDFB" transform="translate(0,0)"/>
<path d="" fill="#FCFDFB" transform="translate(0,0)"/>
<path d="" fill="#FEFFFC" transform="translate(0,0)"/>
<path d="" fill="#FBFCFE" transform="translate(0,0)"/>
<path d="" fill="#FCFEFF" transform="translate(0,0)"/>
<path d="" fill="#F1F1F0" transform="translate(0,0)"/>
<path d="" fill="#FBFAF9" transform="translate(0,0)"/>
<path d="" fill="#FAFCFE" transform="translate(0,0)"/>
<path d="" fill="#FEFDFD" transform="translate(0,0)"/>
<path d="" fill="#FEFFFE" transform="translate(0,0)"/>
<path d="" fill="#F1F2F2" transform="translate(0,0)"/>
<path d="" fill="#FDFCFE" transform="translate(0,0)"/>
<path d="" fill="#F1F1F0" transform="translate(0,0)"/>
<path d="" fill="#F1F3F3" transform="translate(0,0)"/>
<path d="" fill="#FDFEFB" transform="translate(0,0)"/>
<path d="" fill="#FEFFFD" transform="translate(0,0)"/>
<path d="" fill="#FCFBFC" transform="translate(0,0)"/>
<path d="" fill="#FCFDFB" transform="translate(0,0)"/>
<path d="" fill="#FCFDFC" transform="translate(0,0)"/>
<path d="" fill="#FDFFFE" transform="translate(0,0)"/>
<path d="" fill="#FCFCFB" transform="translate(0,0)"/>
<path d="" fill="#FDFCFE" transform="translate(0,0)"/>
<path d="" fill="#FAFAFB" transform="translate(0,0)"/>
<path d="" fill="#F1F2F1" transform="translate(0,0)"/>
<path d="" fill="#FCFDFF" transform="translate(0,0)"/>
<path d="" fill="#FBFCFC" transform="translate(0,0)"/>
<path d="" fill="#FCFBFD" transform="translate(0,0)"/>
<path d="" fill="#F2F3F2" transform="translate(0,0)"/>
<path d="" fill="#FDFEFE" transform="translate(0,0)"/>
<path d="" fill="#FCFBFC" transform="translate(0,0)"/>
<path d="" fill="#FCFCFC" transform="translate(0,0)"/>
<path d="" fill="#FCFEFC" transform="translate(0,0)"/>
<path d="" fill="#EFF0F1" transform="translate(0,0)"/>
<path d="" fill="#FAFBFC" transform="translate(0,0)"/>
<path d="" fill="#FCFDFE" transform="translate(0,0)"/>
<path d="" fill="#FAFAFB" transform="translate(0,0)"/>
<path d="" fill="#F9FBFC" transform="translate(0,0)"/>
<path d="" fill="#FBFAFD" transform="translate(0,0)"/>
<path d="" fill="#F0F0F1" transform="translate(0,0)"/>
<path d="" fill="#EFF0EF" transform="translate(0,0)"/>
<path d="" fill="#FCFDFD" transform="translate(0,0)"/>
<path d="" fill="#FBFDFB" transform="translate(0,0)"/>
<path d="" fill="#FBFBFB" transform="translate(0,0)"/>
<path d="" fill="#FAFCFD" transform="translate(0,0)"/>
<path d="" fill="#FEFDFF" transform="translate(0,0)"/>
<path d="" fill="#FDFDFD" transform="translate(0,0)"/>
<path d="" fill="#F0F0F0" transform="translate(0,0)"/>
<path d="" fill="#F1F0F0" transform="translate(0,0)"/>
<path d="" fill="#FBFAFA" transform="translate(0,0)"/>
<path d="" fill="#FBFBFB" transform="translate(0,0)"/>
<path d="" fill="#FAFAF9" transform="translate(0,0)"/>
<path d="" fill="#FBFBF9" transform="translate(0,0)"/>
<path d="" fill="#FBFBFD" transform="translate(0,0)"/>
<path d="" fill="#FEFFFF" transform="translate(0,0)"/>
<path d="" fill="#FBFBFB" transform="translate(0,0)"/>
<path d="" fill="#F4F4F4" transform="translate(0,0)"/>
<path d="" fill="#FEFDFD" transform="translate(0,0)"/>
<path d="" fill="#EFEEF0" transform="translate(0,0)"/>
<path d="" fill="#FBFAFA" transform="translate(0,0)"/>
<path d="" fill="#EFF0F1" transform="translate(0,0)"/>
<path d="" fill="#F8FAF7" transform="translate(0,0)"/>
<path d="" fill="#F9FBFA" transform="translate(0,0)"/>
<path d="" fill="#FAFAFB" transform="translate(0,0)"/>
<path d="" fill="#F1EFF1" transform="translate(0,0)"/>
<path d="" fill="#FBFAF9" transform="translate(0,0)"/>
<path d="" fill="#FAFBFB" transform="translate(0,0)"/>
<path d="" fill="#FDFDFC" transform="translate(0,0)"/>
<path d="" fill="#F2F4F2" transform="translate(0,0)"/>
<path d="" fill="#F9F9F8" transform="translate(0,0)"/>
<path d="" fill="#FCFCFB" transform="translate(0,0)"/>
<path d="" fill="#FBFCFB" transform="translate(0,0)"/>
<path d="" fill="#FBFDFC" transform="translate(0,0)"/>
<path d="" fill="#FBFDFB" transform="translate(0,0)"/>
<path d="" fill="#F3F3F3" transform="translate(0,0)"/>
<path d="" fill="#EFEEEE" transform="translate(0,0)"/>
<path d="" fill="#F8F7F7" transform="translate(0,0)"/>
<path d="" fill="#FCFEFC" transform="translate(0,0)"/>
<path d="" fill="#F8F8F8" transform="translate(0,0)"/>
<path d="" fill="#F9F8F7" transform="translate(0,0)"/>
<path d="" fill="#FDFCFB" transform="translate(0,0)"/>
<path d="" fill="#F7F7F7" transform="translate(0,0)"/>
<path d="" fill="#F0EFEF" transform="translate(0,0)"/>
<path d="" fill="#EEEDED" transform="translate(0,0)"/>
<path d="" fill="#F6F6F5" transform="translate(0,0)"/>
<path d="" fill="#F8F8F8" transform="translate(0,0)"/>
<path d="" fill="#F7F7F8" transform="translate(0,0)"/>
<path d="" fill="#FFFDFD" transform="translate(0,0)"/>
<path d="" fill="#F8F7F7" transform="translate(0,0)"/>
<path d="" fill="#FAFAFC" transform="translate(0,0)"/>
<path d="" fill="#EEEFEE" transform="translate(0,0)"/>
<path d="" fill="#FDFDFE" transform="translate(0,0)"/>
<path d="" fill="#EFEEEE" transform="translate(0,0)"/>
<path d="" fill="#F2F1F0" transform="translate(0,0)"/>
<path d="" fill="#F8F7F7" transform="translate(0,0)"/>
<path d="" fill="#FBFAFB" transform="translate(0,0)"/>
<path d="" fill="#FEFDFD" transform="translate(0,0)"/>
<path d="" fill="#FDFEFF" transform="translate(0,0)"/>
<path d="" fill="#F7F6F6" transform="translate(0,0)"/>
<path d="" fill="#F1F2F1" transform="translate(0,0)"/>
<path d="" fill="#F1F1F1" transform="translate(0,0)"/>
<path d="" fill="#ECEBEC" transform="translate(0,0)"/>
<path d="" fill="#F3F2F1" transform="translate(0,0)"/>
<path d="" fill="#FDFDFB" transform="translate(0,0)"/>
<path d="" fill="#FAFAF9" transform="translate(0,0)"/>
<path d="" fill="#FCFBFB" transform="translate(0,0)"/>
<path d="" fill="#F2F3F1" transform="translate(0,0)"/>
<path d="" fill="#FBFBFC" transform="translate(0,0)"/>
<path d="" fill="#F7F8F6" transform="translate(0,0)"/>
<path d="" fill="#F8F9F8" transform="translate(0,0)"/>
<path d="" fill="#DFDFDD" transform="translate(0,0)"/>
<path d="" fill="#E0E0E1" transform="translate(0,0)"/>
</svg>
